<svg xmlns="http://www.w3.org/2000/svg" shape-rendering="crispEdges" viewBox="0 0 150.5 269.31">
    <defs>
        <style>
            .cls-1{fill:#6d4c41;}.cls-2{fill:#523931;}.cls-3{fill:#212121;}.cls-4{fill:#37474f;}.cls-5{fill:#263238;}.cls-6{fill:#009688;}.cls-7{fill:#fffbd8;}.cls-8{fill:#f44336;}</style>
    </defs>
    <g id="Layer_2" data-name="Layer 2">
        <g id="OBJECTS">
            <rect class="cls-1" y="134.66" width="7.92" height="7.92" />
            <rect class="cls-1" x="7.92" y="142.58" width="7.92" height="7.92" />
            <rect class="cls-1" x="142.57" y="190.1" width="7.93" height="7.92" />
            <rect class="cls-1" x="142.57" y="182.18" width="7.93" height="7.92" />
            <rect class="cls-1" x="142.57" y="118.82" width="7.93" height="7.92" />
            <rect class="cls-1" x="142.57" y="110.9" width="7.93" height="7.92" />
            <rect class="cls-1" x="142.57" y="102.98" width="7.93" height="7.92" />
            <rect class="cls-1" x="134.65" y="198.02" width="7.92" height="7.93" />
            <rect class="cls-1" x="134.65" y="190.1" width="7.92" height="7.92" />
            <rect class="cls-1" x="134.65" y="182.18" width="7.92" height="7.92" />
            <rect class="cls-1" x="134.65" y="174.26" width="7.92" height="7.92" />
            <rect class="cls-1" x="134.65" y="126.74" width="7.92" height="7.92" />
            <rect class="cls-2" x="134.65" y="118.82" width="7.92" height="7.92" />
            <rect class="cls-2" x="134.65" y="110.9" width="7.92" height="7.92" />
            <rect class="cls-1" x="134.65" y="102.98" width="7.92" height="7.92" />
            <rect class="cls-1" x="126.73" y="213.87" width="7.92" height="7.92" />
            <rect class="cls-1" x="126.73" y="198.02" width="7.92" height="7.93" />
            <rect class="cls-1" x="126.73" y="190.1" width="7.92" height="7.92" />
            <rect class="cls-2" x="126.73" y="182.18" width="7.92" height="7.92" />
            <rect class="cls-1" x="126.73" y="174.26" width="7.92" height="7.92" />
            <rect class="cls-1" x="126.73" y="166.34" width="7.92" height="7.92" />
            <rect class="cls-1" x="126.73" y="142.58" width="7.92" height="7.92" />
            <rect class="cls-1" x="126.73" y="134.66" width="7.92" height="7.92" />
            <rect class="cls-1" x="126.73" y="126.74" width="7.92" height="7.92" />
            <rect class="cls-1" x="126.73" y="118.82" width="7.92" height="7.92" />
            <rect class="cls-1" x="126.73" y="110.9" width="7.92" height="7.92" />
            <rect class="cls-1" x="126.73" y="102.98" width="7.92" height="7.92" />
            <rect class="cls-3" x="126.73" y="95.05" width="7.92" height="7.93" />
            <rect class="cls-3" x="126.73" y="87.13" width="7.92" height="7.92" />
            <rect class="cls-3" x="126.73" y="79.21" width="7.92" height="7.92" />
            <rect class="cls-3" x="126.73" y="71.29" width="7.92" height="7.92" />
            <rect class="cls-3" x="126.73" y="63.37" width="7.92" height="7.92" />
            <rect class="cls-3" x="126.73" y="55.45" width="7.92" height="7.92" />
            <rect class="cls-3" x="126.73" y="47.53" width="7.92" height="7.92" />
            <rect class="cls-3" x="126.73" y="39.61" width="7.92" height="7.92" />
            <rect class="cls-3" x="126.73" y="31.69" width="7.92" height="7.92" />
            <rect class="cls-3" x="126.73" y="23.77" width="7.92" height="7.92" />
            <rect class="cls-3" x="126.73" y="15.85" width="7.92" height="7.92" />
            <rect class="cls-1" x="118.81" y="205.95" width="7.92" height="7.92" />
            <rect class="cls-1" x="118.81" y="198.02" width="7.92" height="7.93" />
            <rect class="cls-2" x="118.81" y="190.1" width="7.92" height="7.92" />
            <rect class="cls-2" x="118.81" y="182.18" width="7.92" height="7.92" />
            <rect class="cls-1" x="118.81" y="174.26" width="7.92" height="7.92" />
            <rect class="cls-1" x="118.81" y="166.34" width="7.92" height="7.92" />
            <rect class="cls-1" x="118.81" y="150.5" width="7.92" height="7.92" />
            <rect class="cls-1" x="118.81" y="142.58" width="7.92" height="7.92" />
            <rect class="cls-1" x="118.81" y="134.66" width="7.92" height="7.92" />
            <rect class="cls-1" x="118.81" y="126.74" width="7.92" height="7.92" />
            <rect class="cls-1" x="118.81" y="118.82" width="7.92" height="7.92" />
            <rect class="cls-1" x="118.81" y="110.9" width="7.92" height="7.92" />
            <rect class="cls-1" x="118.81" y="102.98" width="7.92" height="7.92" />
            <rect class="cls-1" x="118.81" y="95.05" width="7.92" height="7.93" />
            <rect class="cls-3" x="118.81" y="87.13" width="7.92" height="7.92" />
            <rect class="cls-3" x="118.81" y="79.21" width="7.92" height="7.92" />
            <rect class="cls-3" x="118.81" y="71.29" width="7.92" height="7.92" />
            <rect class="cls-3" x="118.81" y="63.37" width="7.92" height="7.92" />
            <rect class="cls-3" x="118.81" y="55.45" width="7.92" height="7.92" />
            <rect class="cls-3" x="118.81" y="47.53" width="7.92" height="7.92" />
            <rect class="cls-3" x="118.81" y="39.61" width="7.92" height="7.92" />
            <rect class="cls-3" x="118.81" y="31.69" width="7.92" height="7.92" />
            <rect class="cls-3" x="118.81" y="23.77" width="7.92" height="7.92" />
            <rect class="cls-3" x="118.81" y="15.85" width="7.92" height="7.92" />
            <rect class="cls-3" x="118.81" y="7.93" width="7.92" height="7.92" />
            <rect class="cls-4" x="110.89" y="253.47" width="7.92" height="7.92" />
            <rect class="cls-4" x="110.89" y="245.55" width="7.92" height="7.92" />
            <rect class="cls-4" x="110.89" y="237.63" width="7.92" height="7.92" />
            <rect class="cls-4" x="110.89" y="229.71" width="7.92" height="7.92" />
            <rect class="cls-4" x="110.89" y="221.79" width="7.92" height="7.92" />
            <rect class="cls-4" x="110.89" y="213.87" width="7.92" height="7.92" />
            <rect class="cls-5" x="110.89" y="205.95" width="7.92" height="7.92" />
            <rect class="cls-5" x="110.89" y="198.02" width="7.92" height="7.93" />
            <rect class="cls-6" x="110.89" y="190.1" width="7.92" height="7.92" />
            <rect class="cls-6" x="110.89" y="182.18" width="7.92" height="7.92" />
            <rect class="cls-6" x="110.89" y="174.26" width="7.92" height="7.92" />
            <rect class="cls-6" x="110.89" y="166.34" width="7.92" height="7.92" />
            <rect class="cls-1" x="110.89" y="158.42" width="7.92" height="7.92" />
            <rect class="cls-1" x="110.89" y="150.5" width="7.92" height="7.92" />
            <rect class="cls-1" x="110.89" y="142.58" width="7.92" height="7.92" />
            <rect class="cls-1" x="110.89" y="134.66" width="7.92" height="7.92" />
            <rect class="cls-1" x="110.89" y="126.74" width="7.92" height="7.92" />
            <rect class="cls-3" x="110.89" y="118.82" width="7.92" height="7.92" />
            <rect class="cls-3" x="110.89" y="110.9" width="7.92" height="7.92" />
            <rect class="cls-1" x="110.89" y="102.98" width="7.92" height="7.92" />
            <rect class="cls-1" x="110.89" y="95.05" width="7.92" height="7.93" />
            <rect class="cls-1" x="110.89" y="87.13" width="7.92" height="7.92" />
            <rect class="cls-3" x="110.89" y="79.21" width="7.92" height="7.92" />
            <rect class="cls-3" x="110.89" y="71.29" width="7.92" height="7.92" />
            <rect class="cls-3" x="110.89" y="63.37" width="7.92" height="7.92" />
            <rect class="cls-3" x="110.89" y="55.45" width="7.92" height="7.92" />
            <rect class="cls-3" x="110.89" y="47.53" width="7.92" height="7.92" />
            <rect class="cls-3" x="110.89" y="39.61" width="7.92" height="7.92" />
            <rect class="cls-3" x="110.89" y="31.69" width="7.92" height="7.92" />
            <rect class="cls-3" x="110.89" y="23.77" width="7.92" height="7.92" />
            <rect class="cls-3" x="110.89" y="15.85" width="7.92" height="7.92" />
            <rect class="cls-3" x="110.89" y="7.93" width="7.92" height="7.92" />
            <rect class="cls-3" x="110.89" width="7.92" height="7.93" />
            <rect class="cls-4" x="102.97" y="261.39" width="7.92" height="7.92" />
            <rect class="cls-4" x="102.97" y="253.47" width="7.92" height="7.92" />
            <rect class="cls-4" x="102.97" y="245.55" width="7.92" height="7.92" />
            <rect class="cls-4" x="102.97" y="237.63" width="7.92" height="7.92" />
            <rect class="cls-4" x="102.97" y="229.71" width="7.92" height="7.92" />
            <rect class="cls-4" x="102.97" y="221.79" width="7.92" height="7.92" />
            <rect class="cls-4" x="102.97" y="213.87" width="7.92" height="7.92" />
            <rect class="cls-5" x="102.97" y="205.95" width="7.92" height="7.92" />
            <rect class="cls-5" x="102.97" y="198.02" width="7.92" height="7.93" />
            <rect class="cls-6" x="102.97" y="190.1" width="7.92" height="7.92" />
            <rect class="cls-6" x="102.97" y="182.18" width="7.92" height="7.92" />
            <rect class="cls-6" x="102.97" y="174.26" width="7.92" height="7.92" />
            <rect class="cls-6" x="102.97" y="166.34" width="7.92" height="7.92" />
            <rect class="cls-1" x="102.97" y="158.42" width="7.92" height="7.92" />
            <rect class="cls-1" x="102.97" y="150.5" width="7.92" height="7.92" />
            <rect class="cls-1" x="102.97" y="142.58" width="7.92" height="7.92" />
            <rect class="cls-1" x="102.97" y="134.66" width="7.92" height="7.92" />
            <rect class="cls-1" x="102.97" y="126.74" width="7.92" height="7.92" />
            <rect class="cls-1" x="102.97" y="118.82" width="7.92" height="7.92" />
            <rect class="cls-1" x="102.97" y="110.9" width="7.92" height="7.92" />
            <rect class="cls-1" x="102.97" y="102.98" width="7.92" height="7.92" />
            <rect class="cls-1" x="102.97" y="95.05" width="7.92" height="7.93" />
            <rect class="cls-1" x="102.97" y="87.13" width="7.92" height="7.92" />
            <rect class="cls-1" x="102.97" y="79.21" width="7.92" height="7.92" />
            <rect class="cls-3" x="102.97" y="71.29" width="7.92" height="7.92" />
            <rect class="cls-3" x="102.97" y="63.37" width="7.92" height="7.92" />
            <rect class="cls-3" x="102.97" y="55.45" width="7.92" height="7.92" />
            <rect class="cls-3" x="102.97" y="47.53" width="7.92" height="7.92" />
            <rect class="cls-3" x="102.97" y="39.61" width="7.92" height="7.92" />
            <rect class="cls-3" x="102.97" y="31.69" width="7.92" height="7.92" />
            <rect class="cls-3" x="102.97" y="23.77" width="7.92" height="7.92" />
            <rect class="cls-3" x="102.97" y="15.85" width="7.92" height="7.92" />
            <rect class="cls-3" x="102.97" y="7.93" width="7.92" height="7.92" />
            <rect class="cls-3" x="102.97" width="7.92" height="7.93" />
            <rect class="cls-4" x="95.05" y="261.39" width="7.92" height="7.92" />
            <rect class="cls-4" x="95.05" y="253.47" width="7.92" height="7.92" />
            <rect class="cls-4" x="95.05" y="245.55" width="7.92" height="7.92" />
            <rect class="cls-4" x="95.05" y="237.63" width="7.92" height="7.92" />
            <rect class="cls-4" x="95.05" y="229.71" width="7.92" height="7.92" />
            <rect class="cls-4" x="95.05" y="221.79" width="7.92" height="7.92" />
            <rect class="cls-4" x="95.05" y="213.87" width="7.92" height="7.92" />
            <rect class="cls-5" x="95.05" y="205.95" width="7.92" height="7.92" />
            <rect class="cls-5" x="95.05" y="198.02" width="7.92" height="7.93" />
            <rect class="cls-6" x="95.05" y="190.1" width="7.92" height="7.92" />
            <rect class="cls-6" x="95.05" y="182.18" width="7.92" height="7.92" />
            <rect class="cls-6" x="95.05" y="174.26" width="7.92" height="7.92" />
            <rect class="cls-7" x="95.05" y="166.34" width="7.92" height="7.92" />
            <rect class="cls-1" x="95.05" y="158.42" width="7.92" height="7.92" />
            <rect class="cls-1" x="95.05" y="150.5" width="7.92" height="7.92" />
            <rect class="cls-1" x="95.05" y="142.58" width="7.92" height="7.92" />
            <rect class="cls-1" x="95.05" y="134.66" width="7.92" height="7.92" />
            <rect class="cls-8" x="95.05" y="126.74" width="7.92" height="7.92" />
            <rect class="cls-1" x="95.05" y="118.82" width="7.92" height="7.92" />
            <rect class="cls-1" x="95.05" y="110.9" width="7.92" height="7.92" />
            <rect class="cls-1" x="95.05" y="102.98" width="7.92" height="7.92" />
            <rect class="cls-1" x="95.05" y="95.05" width="7.92" height="7.93" />
            <rect class="cls-1" x="95.05" y="87.13" width="7.92" height="7.92" />
            <rect class="cls-1" x="95.05" y="79.21" width="7.92" height="7.92" />
            <rect class="cls-3" x="95.05" y="71.29" width="7.92" height="7.92" />
            <rect class="cls-3" x="95.05" y="63.37" width="7.92" height="7.92" />
            <rect class="cls-3" x="95.05" y="55.45" width="7.92" height="7.92" />
            <rect class="cls-3" x="95.05" y="47.53" width="7.92" height="7.92" />
            <rect class="cls-3" x="95.05" y="39.61" width="7.92" height="7.92" />
            <rect class="cls-3" x="95.05" y="31.69" width="7.92" height="7.92" />
            <rect class="cls-3" x="95.05" y="23.77" width="7.92" height="7.92" />
            <rect class="cls-3" x="95.05" y="15.85" width="7.92" height="7.92" />
            <rect class="cls-3" x="95.05" y="7.93" width="7.92" height="7.92" />
            <rect class="cls-3" x="95.05" width="7.92" height="7.93" />
            <rect class="cls-4" x="87.13" y="261.39" width="7.92" height="7.92" />
            <rect class="cls-4" x="87.13" y="253.47" width="7.92" height="7.92" />
            <rect class="cls-4" x="87.13" y="245.55" width="7.92" height="7.92" />
            <rect class="cls-4" x="87.13" y="237.63" width="7.92" height="7.92" />
            <rect class="cls-4" x="87.13" y="229.71" width="7.92" height="7.92" />
            <rect class="cls-4" x="87.13" y="221.79" width="7.92" height="7.92" />
            <rect class="cls-4" x="87.13" y="213.87" width="7.92" height="7.92" />
            <rect class="cls-5" x="87.13" y="205.95" width="7.92" height="7.92" />
            <rect class="cls-5" x="87.13" y="198.02" width="7.92" height="7.93" />
            <rect class="cls-6" x="87.13" y="190.1" width="7.92" height="7.92" />
            <rect class="cls-6" x="87.13" y="182.18" width="7.92" height="7.92" />
            <rect class="cls-7" x="87.13" y="174.26" width="7.92" height="7.92" />
            <rect class="cls-6" x="87.13" y="166.34" width="7.92" height="7.92" />
            <rect class="cls-1" x="87.13" y="158.42" width="7.92" height="7.92" />
            <rect class="cls-1" x="87.13" y="150.5" width="7.92" height="7.92" />
            <rect class="cls-1" x="87.13" y="142.58" width="7.92" height="7.92" />
            <rect class="cls-8" x="87.13" y="134.66" width="7.92" height="7.92" />
            <rect class="cls-8" x="87.13" y="126.74" width="7.92" height="7.92" />
            <rect class="cls-1" x="87.13" y="118.82" width="7.92" height="7.92" />
            <rect class="cls-1" x="87.13" y="110.9" width="7.92" height="7.92" />
            <rect class="cls-1" x="87.13" y="102.98" width="7.92" height="7.92" />
            <rect class="cls-1" x="87.13" y="95.05" width="7.92" height="7.93" />
            <rect class="cls-1" x="87.13" y="87.13" width="7.92" height="7.92" />
            <rect class="cls-1" x="87.13" y="79.21" width="7.92" height="7.92" />
            <rect class="cls-3" x="87.13" y="71.29" width="7.92" height="7.92" />
            <rect class="cls-3" x="87.13" y="63.37" width="7.92" height="7.92" />
            <rect class="cls-3" x="87.13" y="55.45" width="7.92" height="7.92" />
            <rect class="cls-3" x="87.13" y="47.53" width="7.92" height="7.92" />
            <rect class="cls-3" x="87.13" y="39.61" width="7.92" height="7.92" />
            <rect class="cls-3" x="87.13" y="31.69" width="7.92" height="7.92" />
            <rect class="cls-3" x="87.13" y="23.77" width="7.92" height="7.92" />
            <rect class="cls-3" x="87.13" y="15.85" width="7.92" height="7.92" />
            <rect class="cls-3" x="87.13" y="7.93" width="7.92" height="7.92" />
            <rect class="cls-3" x="87.13" width="7.92" height="7.93" />
            <rect class="cls-4" x="79.21" y="261.39" width="7.92" height="7.92" />
            <rect class="cls-4" x="79.21" y="253.47" width="7.92" height="7.92" />
            <rect class="cls-4" x="79.21" y="245.55" width="7.92" height="7.92" />
            <rect class="cls-4" x="79.21" y="237.63" width="7.92" height="7.92" />
            <rect class="cls-4" x="79.21" y="229.71" width="7.92" height="7.92" />
            <rect class="cls-4" x="79.21" y="221.79" width="7.92" height="7.92" />
            <rect class="cls-4" x="79.21" y="213.87" width="7.92" height="7.92" />
            <rect class="cls-5" x="79.21" y="205.95" width="7.92" height="7.92" />
            <rect class="cls-5" x="79.21" y="198.02" width="7.92" height="7.93" />
            <rect class="cls-6" x="79.21" y="190.1" width="7.92" height="7.92" />
            <rect class="cls-7" x="79.21" y="182.18" width="7.92" height="7.92" />
            <rect class="cls-6" x="79.21" y="174.26" width="7.92" height="7.92" />
            <rect class="cls-6" x="79.21" y="166.34" width="7.92" height="7.92" />
            <rect class="cls-1" x="79.21" y="158.42" width="7.92" height="7.92" />
            <rect class="cls-1" x="79.21" y="150.5" width="7.92" height="7.92" />
            <rect class="cls-8" x="79.21" y="142.58" width="7.92" height="7.92" />
            <rect class="cls-8" x="79.21" y="134.66" width="7.92" height="7.92" />
            <rect class="cls-8" x="79.21" y="126.74" width="7.92" height="7.92" />
            <rect class="cls-1" x="79.21" y="118.82" width="7.92" height="7.92" />
            <rect class="cls-1" x="79.21" y="110.9" width="7.92" height="7.92" />
            <rect class="cls-1" x="79.21" y="102.98" width="7.92" height="7.92" />
            <rect class="cls-1" x="79.21" y="95.05" width="7.92" height="7.93" />
            <rect class="cls-1" x="79.21" y="87.13" width="7.92" height="7.92" />
            <rect class="cls-1" x="79.21" y="79.21" width="7.92" height="7.92" />
            <rect class="cls-3" x="79.21" y="71.29" width="7.92" height="7.92" />
            <rect class="cls-3" x="79.21" y="63.37" width="7.92" height="7.92" />
            <rect class="cls-3" x="79.21" y="55.45" width="7.92" height="7.92" />
            <rect class="cls-3" x="79.21" y="47.53" width="7.92" height="7.92" />
            <rect class="cls-3" x="79.21" y="39.61" width="7.92" height="7.92" />
            <rect class="cls-3" x="79.21" y="31.69" width="7.92" height="7.92" />
            <rect class="cls-3" x="79.21" y="23.77" width="7.92" height="7.92" />
            <rect class="cls-3" x="79.21" y="15.85" width="7.92" height="7.92" />
            <rect class="cls-3" x="79.21" y="7.93" width="7.92" height="7.92" />
            <rect class="cls-3" x="79.21" width="7.92" height="7.93" />
            <rect class="cls-4" x="71.29" y="261.39" width="7.92" height="7.92" />
            <rect class="cls-4" x="71.29" y="253.47" width="7.92" height="7.92" />
            <rect class="cls-4" x="71.29" y="245.55" width="7.92" height="7.92" />
            <rect class="cls-4" x="71.29" y="237.63" width="7.92" height="7.92" />
            <rect class="cls-4" x="71.29" y="229.71" width="7.92" height="7.92" />
            <rect class="cls-4" x="71.29" y="221.79" width="7.92" height="7.92" />
            <rect class="cls-4" x="71.29" y="213.87" width="7.92" height="7.92" />
            <rect class="cls-5" x="71.29" y="205.95" width="7.92" height="7.92" />
            <rect class="cls-5" x="71.29" y="198.02" width="7.92" height="7.93" />
            <rect class="cls-6" x="71.29" y="190.1" width="7.92" height="7.92" />
            <rect class="cls-7" x="71.29" y="182.18" width="7.92" height="7.92" />
            <rect class="cls-6" x="71.29" y="174.26" width="7.92" height="7.92" />
            <rect class="cls-6" x="71.29" y="166.34" width="7.92" height="7.92" />
            <rect class="cls-1" x="71.29" y="158.42" width="7.92" height="7.92" />
            <rect class="cls-1" x="71.29" y="150.5" width="7.92" height="7.92" />
            <rect class="cls-8" x="71.29" y="142.58" width="7.92" height="7.92" />
            <rect class="cls-8" x="71.29" y="134.66" width="7.92" height="7.92" />
            <rect class="cls-8" x="71.29" y="126.74" width="7.92" height="7.92" />
            <rect class="cls-1" x="71.29" y="118.82" width="7.92" height="7.92" />
            <rect class="cls-1" x="71.29" y="110.9" width="7.92" height="7.92" />
            <rect class="cls-1" x="71.29" y="102.98" width="7.92" height="7.92" />
            <rect class="cls-1" x="71.29" y="95.05" width="7.92" height="7.93" />
            <rect class="cls-1" x="71.29" y="87.13" width="7.92" height="7.92" />
            <rect class="cls-1" x="71.29" y="79.21" width="7.92" height="7.92" />
            <rect class="cls-3" x="71.29" y="71.29" width="7.92" height="7.92" />
            <rect class="cls-3" x="71.29" y="63.37" width="7.92" height="7.92" />
            <rect class="cls-3" x="71.29" y="55.45" width="7.92" height="7.92" />
            <rect class="cls-3" x="71.29" y="47.53" width="7.92" height="7.92" />
            <rect class="cls-3" x="71.29" y="39.61" width="7.92" height="7.92" />
            <rect class="cls-3" x="71.29" y="31.69" width="7.92" height="7.92" />
            <rect class="cls-3" x="71.29" y="23.77" width="7.92" height="7.92" />
            <rect class="cls-3" x="71.29" y="15.85" width="7.92" height="7.92" />
            <rect class="cls-3" x="71.29" y="7.93" width="7.92" height="7.92" />
            <rect class="cls-3" x="71.29" width="7.92" height="7.93" />
            <rect class="cls-4" x="63.37" y="261.39" width="7.92" height="7.92" />
            <rect class="cls-4" x="63.37" y="253.47" width="7.92" height="7.92" />
            <rect class="cls-4" x="63.37" y="245.55" width="7.92" height="7.92" />
            <rect class="cls-4" x="63.37" y="237.63" width="7.92" height="7.92" />
            <rect class="cls-4" x="63.37" y="229.71" width="7.92" height="7.92" />
            <rect class="cls-4" x="63.37" y="221.79" width="7.92" height="7.92" />
            <rect class="cls-4" x="63.37" y="213.87" width="7.92" height="7.92" />
            <rect class="cls-5" x="63.37" y="205.95" width="7.92" height="7.92" />
            <rect class="cls-5" x="63.37" y="198.02" width="7.92" height="7.93" />
            <rect class="cls-6" x="63.37" y="190.1" width="7.92" height="7.92" />
            <rect class="cls-6" x="63.37" y="182.18" width="7.92" height="7.92" />
            <rect class="cls-7" x="63.37" y="174.26" width="7.92" height="7.92" />
            <rect class="cls-6" x="63.37" y="166.34" width="7.92" height="7.92" />
            <rect class="cls-1" x="63.37" y="158.42" width="7.92" height="7.92" />
            <rect class="cls-1" x="63.37" y="150.5" width="7.92" height="7.92" />
            <rect class="cls-1" x="63.37" y="142.58" width="7.92" height="7.92" />
            <rect class="cls-8" x="63.37" y="134.66" width="7.92" height="7.92" />
            <rect class="cls-8" x="63.37" y="126.74" width="7.92" height="7.92" />
            <rect class="cls-1" x="63.37" y="118.82" width="7.92" height="7.92" />
            <rect class="cls-1" x="63.37" y="110.9" width="7.92" height="7.92" />
            <rect class="cls-1" x="63.37" y="102.98" width="7.92" height="7.92" />
            <rect class="cls-1" x="63.37" y="95.05" width="7.92" height="7.93" />
            <rect class="cls-1" x="63.37" y="87.13" width="7.92" height="7.92" />
            <rect class="cls-1" x="63.37" y="79.21" width="7.92" height="7.92" />
            <rect class="cls-3" x="63.37" y="71.29" width="7.92" height="7.92" />
            <rect class="cls-3" x="63.37" y="63.37" width="7.92" height="7.92" />
            <rect class="cls-3" x="63.37" y="55.45" width="7.92" height="7.92" />
            <rect class="cls-3" x="63.37" y="47.53" width="7.92" height="7.92" />
            <rect class="cls-3" x="63.37" y="39.61" width="7.92" height="7.92" />
            <rect class="cls-3" x="63.37" y="31.69" width="7.92" height="7.92" />
            <rect class="cls-3" x="63.37" y="23.77" width="7.92" height="7.92" />
            <rect class="cls-3" x="63.37" y="15.85" width="7.92" height="7.92" />
            <rect class="cls-3" x="63.37" y="7.93" width="7.92" height="7.92" />
            <rect class="cls-3" x="63.37" width="7.92" height="7.93" />
            <rect class="cls-4" x="55.45" y="261.39" width="7.92" height="7.92" />
            <rect class="cls-4" x="55.45" y="253.47" width="7.92" height="7.92" />
            <rect class="cls-4" x="55.45" y="245.55" width="7.92" height="7.92" />
            <rect class="cls-4" x="55.45" y="237.63" width="7.92" height="7.92" />
            <rect class="cls-4" x="55.45" y="229.71" width="7.92" height="7.92" />
            <rect class="cls-4" x="55.45" y="221.79" width="7.92" height="7.92" />
            <rect class="cls-4" x="55.45" y="213.87" width="7.92" height="7.92" />
            <rect class="cls-5" x="55.45" y="205.95" width="7.92" height="7.92" />
            <rect class="cls-5" x="55.45" y="198.02" width="7.92" height="7.93" />
            <rect class="cls-6" x="55.45" y="190.1" width="7.92" height="7.92" />
            <rect class="cls-6" x="55.45" y="182.18" width="7.92" height="7.92" />
            <rect class="cls-6" x="55.45" y="174.26" width="7.92" height="7.92" />
            <rect class="cls-7" x="55.45" y="166.34" width="7.92" height="7.92" />
            <rect class="cls-1" x="55.45" y="158.42" width="7.92" height="7.92" />
            <rect class="cls-1" x="55.45" y="150.5" width="7.92" height="7.92" />
            <rect class="cls-1" x="55.45" y="142.58" width="7.92" height="7.92" />
            <rect class="cls-1" x="55.45" y="134.66" width="7.92" height="7.92" />
            <rect class="cls-8" x="55.45" y="126.74" width="7.92" height="7.92" />
            <rect class="cls-1" x="55.45" y="118.82" width="7.92" height="7.92" />
            <rect class="cls-1" x="55.45" y="110.9" width="7.92" height="7.92" />
            <rect class="cls-1" x="55.45" y="102.98" width="7.92" height="7.92" />
            <rect class="cls-1" x="55.45" y="95.05" width="7.92" height="7.93" />
            <rect class="cls-1" x="55.45" y="87.13" width="7.92" height="7.92" />
            <rect class="cls-1" x="55.45" y="79.21" width="7.92" height="7.92" />
            <rect class="cls-3" x="55.45" y="71.29" width="7.92" height="7.92" />
            <rect class="cls-3" x="55.45" y="63.37" width="7.92" height="7.92" />
            <rect class="cls-3" x="55.45" y="55.45" width="7.92" height="7.92" />
            <rect class="cls-3" x="55.45" y="47.53" width="7.92" height="7.92" />
            <rect class="cls-3" x="55.45" y="39.61" width="7.92" height="7.92" />
            <rect class="cls-3" x="55.45" y="31.69" width="7.92" height="7.92" />
            <rect class="cls-3" x="55.45" y="23.77" width="7.92" height="7.92" />
            <rect class="cls-3" x="55.45" y="15.85" width="7.92" height="7.92" />
            <rect class="cls-3" x="55.45" y="7.93" width="7.92" height="7.92" />
            <rect class="cls-3" x="55.45" width="7.92" height="7.93" />
            <rect class="cls-4" x="47.52" y="261.39" width="7.93" height="7.92" />
            <rect class="cls-4" x="47.52" y="253.47" width="7.93" height="7.92" />
            <rect class="cls-4" x="47.52" y="245.55" width="7.93" height="7.92" />
            <rect class="cls-4" x="47.52" y="237.63" width="7.93" height="7.92" />
            <rect class="cls-4" x="47.52" y="229.71" width="7.93" height="7.92" />
            <rect class="cls-4" x="47.52" y="221.79" width="7.93" height="7.92" />
            <rect class="cls-4" x="47.52" y="213.87" width="7.93" height="7.92" />
            <rect class="cls-5" x="47.52" y="205.95" width="7.93" height="7.92" />
            <rect class="cls-5" x="47.52" y="198.02" width="7.93" height="7.93" />
            <rect class="cls-6" x="47.52" y="190.1" width="7.93" height="7.92" />
            <rect class="cls-6" x="47.52" y="182.18" width="7.93" height="7.92" />
            <rect class="cls-6" x="47.52" y="174.26" width="7.93" height="7.92" />
            <rect class="cls-6" x="47.52" y="166.34" width="7.93" height="7.92" />
            <rect class="cls-1" x="47.52" y="158.42" width="7.93" height="7.92" />
            <rect class="cls-1" x="47.52" y="150.5" width="7.93" height="7.92" />
            <rect class="cls-1" x="47.52" y="142.58" width="7.93" height="7.92" />
            <rect class="cls-1" x="47.52" y="134.66" width="7.93" height="7.92" />
            <rect class="cls-1" x="47.52" y="126.74" width="7.93" height="7.92" />
            <rect class="cls-1" x="47.52" y="118.82" width="7.93" height="7.92" />
            <rect class="cls-1" x="47.52" y="110.9" width="7.93" height="7.92" />
            <rect class="cls-1" x="47.52" y="102.98" width="7.93" height="7.92" />
            <rect class="cls-1" x="47.52" y="95.05" width="7.93" height="7.93" />
            <rect class="cls-1" x="47.52" y="87.13" width="7.93" height="7.92" />
            <rect class="cls-1" x="47.52" y="79.21" width="7.93" height="7.92" />
            <rect class="cls-3" x="47.52" y="71.29" width="7.93" height="7.92" />
            <rect class="cls-3" x="47.52" y="63.37" width="7.93" height="7.92" />
            <rect class="cls-3" x="47.52" y="55.45" width="7.93" height="7.92" />
            <rect class="cls-3" x="47.52" y="47.53" width="7.93" height="7.92" />
            <rect class="cls-3" x="47.52" y="39.61" width="7.93" height="7.92" />
            <rect class="cls-3" x="47.52" y="31.69" width="7.93" height="7.92" />
            <rect class="cls-3" x="47.52" y="23.77" width="7.93" height="7.92" />
            <rect class="cls-3" x="47.52" y="15.85" width="7.93" height="7.92" />
            <rect class="cls-3" x="47.52" y="7.93" width="7.93" height="7.92" />
            <rect class="cls-3" x="47.52" width="7.93" height="7.93" />
            <rect class="cls-4" x="39.6" y="253.47" width="7.92" height="7.92" />
            <rect class="cls-4" x="39.6" y="245.55" width="7.92" height="7.92" />
            <rect class="cls-4" x="39.6" y="237.63" width="7.92" height="7.92" />
            <rect class="cls-4" x="39.6" y="229.71" width="7.92" height="7.92" />
            <rect class="cls-4" x="39.6" y="221.79" width="7.92" height="7.92" />
            <rect class="cls-4" x="39.6" y="213.87" width="7.92" height="7.92" />
            <rect class="cls-5" x="39.6" y="205.95" width="7.92" height="7.92" />
            <rect class="cls-5" x="39.6" y="198.02" width="7.92" height="7.93" />
            <rect class="cls-6" x="39.6" y="190.1" width="7.92" height="7.92" />
            <rect class="cls-6" x="39.6" y="182.18" width="7.92" height="7.92" />
            <rect class="cls-6" x="39.6" y="174.26" width="7.92" height="7.92" />
            <rect class="cls-6" x="39.6" y="166.34" width="7.92" height="7.92" />
            <rect class="cls-1" x="39.6" y="158.42" width="7.92" height="7.92" />
            <rect class="cls-1" x="39.6" y="150.5" width="7.92" height="7.92" />
            <rect class="cls-1" x="39.6" y="142.58" width="7.92" height="7.92" />
            <rect class="cls-1" x="39.6" y="134.66" width="7.92" height="7.92" />
            <rect class="cls-1" x="39.6" y="126.74" width="7.92" height="7.92" />
            <rect class="cls-3" x="39.6" y="118.82" width="7.92" height="7.92" />
            <rect class="cls-3" x="39.6" y="110.9" width="7.92" height="7.92" />
            <rect class="cls-1" x="39.6" y="102.98" width="7.92" height="7.92" />
            <rect class="cls-1" x="39.6" y="95.05" width="7.92" height="7.93" />
            <rect class="cls-1" x="39.6" y="87.13" width="7.92" height="7.92" />
            <rect class="cls-3" x="39.6" y="79.21" width="7.92" height="7.92" />
            <rect class="cls-3" x="39.6" y="71.29" width="7.92" height="7.92" />
            <rect class="cls-3" x="39.6" y="63.37" width="7.92" height="7.92" />
            <rect class="cls-3" x="39.6" y="55.45" width="7.92" height="7.92" />
            <rect class="cls-3" x="39.6" y="47.53" width="7.92" height="7.92" />
            <rect class="cls-3" x="39.6" y="39.61" width="7.92" height="7.92" />
            <rect class="cls-3" x="39.6" y="31.69" width="7.92" height="7.92" />
            <rect class="cls-3" x="39.6" y="23.77" width="7.92" height="7.92" />
            <rect class="cls-3" x="39.6" y="15.85" width="7.92" height="7.92" />
            <rect class="cls-3" x="39.6" y="7.93" width="7.92" height="7.92" />
            <rect class="cls-3" x="39.6" width="7.92" height="7.93" />
            <rect class="cls-1" x="31.68" y="182.18" width="7.92" height="7.92" />
            <rect class="cls-1" x="31.68" y="174.26" width="7.92" height="7.92" />
            <rect class="cls-1" x="31.68" y="166.34" width="7.92" height="7.92" />
            <rect class="cls-1" x="31.68" y="150.5" width="7.92" height="7.92" />
            <rect class="cls-1" x="31.68" y="142.58" width="7.92" height="7.92" />
            <rect class="cls-1" x="31.68" y="134.66" width="7.92" height="7.92" />
            <rect class="cls-1" x="31.68" y="126.74" width="7.92" height="7.92" />
            <rect class="cls-1" x="31.68" y="118.82" width="7.92" height="7.92" />
            <rect class="cls-1" x="31.68" y="110.9" width="7.92" height="7.92" />
            <rect class="cls-1" x="31.68" y="102.98" width="7.92" height="7.92" />
            <rect class="cls-1" x="31.68" y="95.05" width="7.92" height="7.93" />
            <rect class="cls-3" x="31.68" y="87.13" width="7.92" height="7.92" />
            <rect class="cls-3" x="31.68" y="79.21" width="7.92" height="7.92" />
            <rect class="cls-3" x="31.68" y="71.29" width="7.92" height="7.92" />
            <rect class="cls-3" x="31.68" y="63.37" width="7.92" height="7.92" />
            <rect class="cls-3" x="31.68" y="55.45" width="7.92" height="7.92" />
            <rect class="cls-3" x="31.68" y="47.53" width="7.92" height="7.92" />
            <rect class="cls-3" x="31.68" y="39.61" width="7.92" height="7.92" />
            <rect class="cls-3" x="31.68" y="31.69" width="7.92" height="7.92" />
            <rect class="cls-3" x="31.68" y="23.77" width="7.92" height="7.92" />
            <rect class="cls-3" x="31.68" y="15.85" width="7.92" height="7.92" />
            <rect class="cls-3" x="31.68" y="7.93" width="7.92" height="7.92" />
            <rect class="cls-1" x="23.76" y="182.18" width="7.92" height="7.92" />
            <rect class="cls-1" x="23.76" y="174.26" width="7.92" height="7.92" />
            <rect class="cls-1" x="23.76" y="142.58" width="7.92" height="7.92" />
            <rect class="cls-1" x="23.76" y="134.66" width="7.92" height="7.92" />
            <rect class="cls-1" x="23.76" y="126.74" width="7.92" height="7.92" />
            <rect class="cls-1" x="23.76" y="118.82" width="7.92" height="7.92" />
            <rect class="cls-1" x="23.76" y="110.9" width="7.92" height="7.92" />
            <rect class="cls-1" x="23.76" y="102.98" width="7.92" height="7.92" />
            <rect class="cls-3" x="23.76" y="95.05" width="7.92" height="7.93" />
            <rect class="cls-3" x="23.76" y="87.13" width="7.92" height="7.92" />
            <rect class="cls-3" x="23.76" y="79.21" width="7.92" height="7.92" />
            <rect class="cls-3" x="23.76" y="71.29" width="7.92" height="7.92" />
            <rect class="cls-3" x="23.76" y="63.37" width="7.92" height="7.92" />
            <rect class="cls-3" x="23.76" y="55.45" width="7.92" height="7.92" />
            <rect class="cls-3" x="23.76" y="47.53" width="7.92" height="7.92" />
            <rect class="cls-3" x="23.76" y="39.61" width="7.92" height="7.92" />
            <rect class="cls-3" x="23.76" y="31.69" width="7.92" height="7.92" />
            <rect class="cls-3" x="23.76" y="23.77" width="7.92" height="7.92" />
            <rect class="cls-3" x="23.76" y="15.85" width="7.92" height="7.92" />
            <rect class="cls-1" x="15.84" y="182.18" width="7.92" height="7.92" />
            <rect class="cls-1" x="15.84" y="174.26" width="7.92" height="7.92" />
            <rect class="cls-1" x="15.84" y="126.74" width="7.92" height="7.92" />
            <rect class="cls-2" x="15.84" y="118.82" width="7.92" height="7.92" />
            <rect class="cls-2" x="15.84" y="110.9" width="7.92" height="7.92" />
            <rect class="cls-1" x="15.84" y="102.98" width="7.92" height="7.92" />
            <rect class="cls-1" x="7.92" y="182.18" width="7.92" height="7.92" />
            <rect class="cls-1" x="7.92" y="174.26" width="7.92" height="7.92" />
            <rect class="cls-1" x="7.92" y="166.34" width="7.92" height="7.92" />
            <rect class="cls-1" x="7.92" y="158.42" width="7.92" height="7.92" />
            <rect class="cls-1" x="7.92" y="150.5" width="7.92" height="7.92" />
            <rect class="cls-1" x="7.92" y="118.82" width="7.92" height="7.92" />
            <rect class="cls-1" x="7.92" y="110.9" width="7.92" height="7.92" />
            <rect class="cls-1" x="7.92" y="102.98" width="7.92" height="7.92" />
            <rect class="cls-1" y="174.26" width="7.92" height="7.92" />
            <rect class="cls-1" y="166.34" width="7.92" height="7.92" />
            <rect class="cls-1" y="158.42" width="7.92" height="7.92" />
            <rect class="cls-1" y="150.5" width="7.92" height="7.92" />
        </g>
    </g>
</svg>